<?xml version="1.0" standalone="no"?><!DOCTYPE svg PUBLIC "-//W3C//DTD SVG 1.1//EN" "http://www.w3.org/Graphics/SVG/1.1/DTD/svg11.dtd"><svg t="1621322819522" class="icon" viewBox="0 0 1024 1024" version="1.1" xmlns="http://www.w3.org/2000/svg" p-id="4921" xmlns:xlink="http://www.w3.org/1999/xlink" width="200" height="200"><defs><style type="text/css"></style></defs><path d="M452.266667 907.946667c-69.973333-58.88-244.053333-183.466667-313.173334-224.426667-29.866667-17.066667-53.76-34.986667-53.76-40.106667s9.386667-13.653333 21.333334-18.773333c29.013333-13.653333 27.306667-21.333333-12.8-47.786667-20.48-13.653333-34.133333-29.013333-34.133334-39.253333 0-16.213333 3.413333-20.48 40.96-49.493333l20.48-15.36-30.72-16.213334c-33.28-17.92-47.786667-49.493333-31.573333-66.56 5.973333-5.973333 44.373333-31.573333 86.186667-57.173333 99.84-62.293333 180.053333-119.466667 273.92-193.706667 43.52-35.84 85.333333-62.293333 96.426666-62.293333 10.24 0 43.52 20.48 74.24 46.08 70.826667 58.026667 212.48 158.72 308.053334 218.453333 40.96 25.6 76.8 52.053333 79.36 58.026667 5.973333 17.066667-9.386667 41.813333-37.546667 58.026667l-24.746667 14.506666 33.28 24.746667c46.933333 34.133333 43.52 52.906667-14.506666 87.893333l-33.28 19.626667 28.16 16.213333c14.506667 8.533333 27.306667 19.626667 27.306666 23.893334 0 5.12-23.893333 22.186667-53.76 40.106666-68.266667 40.106667-218.453333 146.773333-305.493333 216.746667-37.546667 29.866667-72.533333 54.613333-78.506667 53.76-5.12 0-34.986667-21.333333-65.706666-46.933333z" fill="#6C1115" p-id="4922"></path><path d="M448 903.68c-63.146667-52.906667-264.533333-196.266667-325.973333-230.4-20.48-11.093333-36.693333-23.893333-36.693334-29.013333 0-10.24 62.293333-46.933333 78.506667-46.933334 5.973333 0 31.573333 13.653333 56.32 29.866667 23.893333 17.066667 44.373333 28.16 44.373333 26.453333 0-5.12-119.466667-86.186667-164.693333-112.64l-33.28-18.773333 52.053333-29.013333 52.053334-29.866667-51.2-29.013333c-27.306667-16.213333-49.493333-31.573333-48.64-34.986667s32.426667-25.6 69.973333-48.64l68.266667-41.813333 34.133333 27.306666c31.573333 25.6 89.6 58.88 89.6 52.053334 0-2.56-24.746667-23.04-55.466667-46.08l-55.466666-41.813334 68.266666-47.786666 68.266667-48.64 38.4 32.426666c51.2 42.666667 79.36 45.226667 29.866667 2.56-21.333333-18.773333-40.96-34.133333-44.373334-34.133333-16.213333 0-2.56-17.066667 52.906667-62.293333 32.426667-26.453333 62.293333-48.64 64.853333-48.64 4.266667 0 92.16 65.706667 125.44 94.72 4.266667 2.56-19.626667 28.16-52.906666 55.466666s-58.026667 51.2-56.32 53.76c5.12 4.266667 74.24-42.666667 107.52-73.386666l22.186666-20.48 64.853334 45.226666c35.84 24.746667 64.853333 47.786667 64.853333 50.346667 0.853333 2.56-28.16 28.16-63.146667 55.466667s-60.586667 51.2-56.32 52.906666c8.533333 2.56 64.853333-34.986667 110.933334-73.386666l29.013333-24.746667 69.12 43.52c82.773333 51.2 80.213333 49.493333 67.413333 53.76-17.066667 5.973333-131.413333 81.066667-128 84.48 1.706667 1.706667 14.506667-1.706667 29.866667-6.826667 28.16-11.093333 42.666667-5.973333 85.333333 25.6l18.773334 14.506667-89.6 58.88C686.08 689.493333 488.106667 844.8 516.266667 844.8c7.68 0 49.493333-28.16 93.013333-62.293333 42.666667-34.133333 104.96-81.066667 137.386667-104.96 133.12-93.866667 122.88-90.453333 174.933333-60.586667 30.72 17.066667 46.08 40.106667 26.453333 40.106667-14.506667 0-249.173333 162.133333-335.36 231.253333-46.08 36.693333-88.746667 67.413333-94.72 66.56-5.973333 0-36.693333-23.04-69.973333-51.2z m-12.8-122.026667c0-1.706667-16.213333-16.213333-35.84-30.72l-36.693333-27.306666 34.133333 30.72c34.133333 30.72 38.4 33.28 38.4 27.306666z m139.946667-109.226666c40.106667-31.573333 64-58.026667 52.053333-58.026667-3.413333 0-89.6 67.413333-110.08 86.186667-5.12 5.12-4.266667 7.68 1.706667 7.68s31.573333-16.213333 56.32-35.84z m-250.88 23.893333c0-2.56-12.8-11.946667-27.306667-22.186667l-28.16-18.773333 25.6 22.186667c26.453333 23.04 29.866667 24.746667 29.866667 18.773333z m113.493333-129.706667c26.453333-16.213333 48.64-34.133333 48.64-38.4 0-5.12-5.12-5.973333-10.24-2.56-72.533333 43.52-110.933333 71.68-100.693333 71.68 7.68 0 34.986667-13.653333 62.293333-30.72z m286.72-8.533333c29.013333-21.333333 51.2-40.96 48.64-43.52-4.266667-4.266667-116.053333 71.68-116.053333 79.36 0 9.386667 17.92 0 67.413333-35.84z m-152.746667-80.213333c46.933333-31.573333 67.413333-51.2 55.466667-51.2-5.973333 0-70.826667 42.666667-105.813333 69.973333-39.253333 29.866667 0.853333 15.36 50.346666-18.773333z m-283.306666-13.653334c58.026667-36.693333 57.173333-36.693333 51.2-41.813333-4.266667-5.12-117.76 62.293333-117.76 69.12 0 9.386667 23.04 0 66.56-27.306667z m147.626666-98.986666c27.306667-18.773333 50.346667-38.4 50.346667-42.666667s-5.12-5.12-10.24-1.706667c-27.306667 16.213333-117.76 81.92-117.76 86.186667 0 8.533333 27.306667-5.973333 77.653333-41.813333z" fill="#AC1A1E" p-id="4923"></path><path d="M477.013333 808.106667c-57.173333-49.493333-252.586667-192-325.973333-238.933334l-75.093333-46.933333 39.253333-23.893333 40.106667-23.04 34.986666 20.48c19.626667 10.24 57.173333 35.84 82.773334 54.613333 25.6 19.626667 58.88 42.666667 72.533333 52.053333 14.506667 8.533333 54.613333 40.106667 89.6 69.12 34.986667 29.866667 70.826667 53.76 78.506667 53.76 15.36 0 117.76-78.506667 128.853333-98.986666 3.413333-6.826667 11.093333-11.946667 16.213333-11.946667 9.386667 0 118.613333-75.093333 127.146667-87.04 6.826667-10.24 69.12-40.96 81.92-40.96 5.973333 0 23.893333 8.533333 39.253333 18.773333l28.16 17.92-123.733333 83.626667c-69.12 45.226667-164.693333 115.2-215.04 155.306667l-89.6 71.68-29.866667-25.6z" fill="#E42E25" p-id="4924"></path><path d="M439.466667 660.48c-32.426667-26.453333-60.586667-49.493333-62.293334-50.346667-0.853333-0.853333 26.453333-20.48 62.293334-41.813333l64-40.106667 64 40.106667c35.84 21.333333 63.146667 40.96 62.293333 41.813333-23.04 20.48-122.88 98.133333-126.293333 98.133334-2.56 0-30.72-21.333333-64-47.786667zM340.48 581.12c-11.093333-8.533333-40.96-29.013333-65.706667-46.08l-44.373333-30.72 63.146667-39.253333 63.146666-39.253334 64.853334 46.933334 64.853333 46.08-53.76 33.28c-29.013333 18.773333-57.173333 35.84-62.293333 39.253333-5.973333 3.413333-18.773333-1.706667-29.866667-10.24zM581.973333 558.08l-61.44-39.253333 64.853334-46.08c35.84-25.6 67.413333-46.08 70.826666-44.373334 18.773333 8.533333 111.786667 71.68 111.786667 75.946667 0 3.413333-82.773333 65.706667-115.2 86.186667-5.12 3.413333-36.693333-11.946667-70.826667-32.426667zM436.053333 459.946667c-34.133333-23.893333-58.88-46.08-55.466666-49.493334 4.266667-4.266667 33.28-24.746667 65.706666-46.933333l57.173334-40.96 58.026666 40.96c31.573333 22.186667 60.586667 42.666667 64 46.08 6.826667 5.973333-88.746667 79.36-115.2 89.6-6.826667 2.56-40.106667-14.506667-74.24-39.253333zM145.066667 448c-30.72-20.48-60.586667-37.546667-65.706667-38.4-23.04 0-7.68-14.506667 59.733333-55.466667l70.826667-43.52 54.613333 45.226667c30.72 25.6 58.88 49.493333 62.293334 52.906667 7.68 7.68-102.4 78.506667-118.613334 76.8-4.266667 0-32.426667-17.066667-63.146666-37.546667zM732.16 453.973333c-26.453333-17.066667-50.346667-34.133333-53.76-36.693333-5.973333-5.973333 112.64-104.106667 122.026667-99.84 17.92 7.68 129.706667 80.213333 128.853333 83.626667 0 7.68-127.146667 85.333333-138.24 84.48-5.973333 0-32.426667-14.506667-58.88-31.573334zM294.4 352.426667c-32.426667-25.6-60.586667-48.64-61.44-52.053334s27.306667-26.453333 62.293333-50.346666l64-45.226667 18.773334 17.92c10.24 10.24 39.253333 33.28 64 52.053333l44.373333 34.986667-52.906667 37.546667c-29.866667 20.48-59.733333 40.96-66.56 45.226666-9.386667 4.266667-30.72-6.826667-72.533333-40.106666zM586.24 354.986667l-65.706667-45.226667 61.44-48.64c34.133333-26.453333 65.706667-46.933333 70.826667-44.373333 5.12 1.706667 34.986667 21.333333 66.56 42.666666l56.32 40.106667-27.306667 23.893333c-15.36 12.8-42.666667 34.986667-62.293333 50.346667l-34.986667 26.453333-64.853333-45.226666zM435.2 243.2c-30.72-24.746667-54.613333-47.786667-53.76-51.2 1.706667-3.413333 63.146667-54.613333 110.933333-91.306667 6.826667-5.12 29.866667 8.533333 69.973334 41.813334 33.28 26.453333 60.586667 51.2 60.586666 54.613333 0 8.533333-111.786667 93.013333-122.88 92.16-5.12 0-34.133333-20.48-64.853333-46.08z" fill="#E42E25" p-id="4925"></path><path d="M448.853333 664.746667c-28.16-23.04-54.613333-45.226667-58.88-49.493334-8.533333-8.533333 92.16-77.653333 113.493334-77.653333 19.626667 0 122.026667 69.12 114.346666 76.8-19.626667 17.92-113.493333 93.866667-116.053333 93.013333-1.706667 0-25.6-19.626667-52.906667-42.666666zM324.266667 566.613333c-25.6-22.186667-25.6-23.04-11.093334-39.253333 8.533333-9.386667 33.28-26.453333 54.613334-36.693333l39.253333-20.48 34.986667 21.333333c20.48 11.946667 34.133333 24.746667 31.573333 29.013333-6.826667 10.24-102.4 68.266667-113.493333 68.266667-5.12 0-21.333333-10.24-35.84-22.186667zM582.826667 554.666667c-29.866667-18.773333-53.76-34.986667-53.76-36.693334 0-2.56 15.36-14.506667 34.986666-26.453333 25.6-17.92 40.96-22.186667 58.026667-17.92 21.333333 5.12 106.666667 55.466667 101.546667 59.733333-17.92 17.92-70.826667 55.466667-78.506667 55.466667-5.12 0-33.28-15.36-62.293333-34.133333zM475.306667 482.986667l-24.746667-19.626667 20.48-5.12c28.16-7.68 73.386667-6.826667 78.506667 0.853333 3.413333 5.973333-39.253333 45.226667-47.786667 44.373334-1.706667-0.853333-13.653333-9.386667-26.453333-20.48z" fill="#EB674A" p-id="4926"></path><path d="M473.6 684.373333c-14.506667-12.8-40.106667-34.986667-58.026667-49.493333l-32.426666-26.453333 52.053333-31.573334c29.013333-17.066667 59.733333-30.72 68.266667-30.72 17.066667 0 116.906667 56.32 113.493333 64-2.56 5.973333-110.933333 98.133333-115.2 98.133334-1.706667 0-14.506667-11.093333-28.16-23.893334z" fill="#F1986C" p-id="4927"></path></svg>